<svg width="32" height="33" viewBox="0 0 32 33" fill="none" xmlns="http://www.w3.org/2000/svg">
<path d="M27.296 4.80622C24.1849 1.61734 20.384 0 16 0C11.5751 0 7.76356 1.61917 4.67022 4.80805C1.57156 7.99693 0 11.9276 0 16.4847C0 20.9997 1.56978 24.9158 4.66489 28.123C7.76 31.3393 11.5733 32.9695 16 32.9695C20.3858 32.9695 24.1867 31.3393 27.2996 28.1285C30.4196 24.9176 32 20.9997 32 16.4847C32 11.9276 30.4178 7.99693 27.296 4.80622ZM24.7858 25.5385C22.7644 27.6248 20.4551 28.8135 17.7778 29.1743V20.148H21.3333V16.4847H17.7778V13.9204C17.7778 13.776 17.8054 13.6329 17.8591 13.4995C17.9129 13.366 17.9916 13.2448 18.0908 13.1427C18.1901 13.0406 18.3079 12.9597 18.4375 12.9046C18.5671 12.8495 18.706 12.8212 18.8462 12.8215H21.3333V9.15819H18.8498C17.5307 9.15819 16.4302 9.65823 15.5484 10.6638C14.6667 11.6657 14.2222 12.8892 14.2222 14.3417V16.4847H10.6667V20.148H14.2222V29.178C11.5164 28.8208 9.19822 27.6303 7.18756 25.544C4.74311 23.009 3.55556 20.0454 3.55556 16.4847C3.55556 12.8837 4.74133 9.91282 7.18578 7.39982C9.62133 4.88498 12.5049 3.66328 16 3.66328C19.4578 3.66328 22.3324 4.88681 24.7911 7.40531C27.2498 9.91832 28.4444 12.8892 28.4444 16.4847C28.4444 20.0399 27.248 23.0035 24.7858 25.5385Z" fill="#002445"/>
</svg>
