<svg width="32" height="33" viewBox="0 0 32 33" fill="none" xmlns="http://www.w3.org/2000/svg">
<path d="M16 0C7.11111 0 0 7.32655 0 16.4847C0 25.6429 7.11111 32.9695 16 32.9695C24.8889 32.9695 32 25.6429 32 16.4847C32 7.32655 24.8889 0 16 0ZM16 12.8215C17.9556 12.8215 19.5556 14.4699 19.5556 16.4847C19.5556 18.4995 17.9556 20.148 16 20.148C14.0444 20.148 12.4444 18.4995 12.4444 16.4847C12.4444 14.4699 14.0444 12.8215 16 12.8215ZM20.9778 9.15819C20.9778 7.87604 22.0444 6.96022 23.1111 6.96022C24.1778 6.96022 25.2444 8.05921 25.2444 9.15819C25.2444 10.2572 24.3556 11.3562 23.1111 11.3562C21.8667 11.3562 20.9778 10.4403 20.9778 9.15819ZM16 29.3062C9.06667 29.3062 3.55556 23.6281 3.55556 16.4847H8.88889C8.88889 20.5143 12.0889 23.8113 16 23.8113C19.9111 23.8113 23.1111 20.5143 23.1111 16.4847H28.4444C28.4444 23.6281 22.9333 29.3062 16 29.3062Z" fill="#002445"/>
</svg>
