<svg width="32" height="33" viewBox="0 0 32 33" fill="none" xmlns="http://www.w3.org/2000/svg">
<path d="M12.5031 22.5291H9.65867V13.0065H12.5031V22.5291ZM11.0809 11.7848C10.0551 11.7848 9.54133 11.2957 9.54133 10.3194C9.53815 10.1235 9.57624 9.92923 9.65296 9.74994C9.72969 9.57065 9.84324 9.41063 9.98578 9.28091C10.2822 8.99595 10.6756 8.84265 11.0809 8.85414C12.1067 8.85414 12.6204 9.34502 12.6204 10.3213C12.6204 11.2975 12.1084 11.7848 11.0809 11.7848ZM23.0524 22.5291H20.1493V17.2174C20.1493 15.8345 19.6729 15.1421 18.7253 15.1421C17.9751 15.1421 17.4827 15.5286 17.2427 16.3016C17.1662 16.4243 17.1253 16.6697 17.1253 17.0342V22.5291H14.2222V16.058C14.2222 14.5927 14.2009 13.5761 14.1636 13.0065H16.6524L16.8302 14.2868C17.4827 13.2684 18.4302 12.761 19.7333 12.761C20.7236 12.761 21.5218 13.1164 22.1333 13.8289C22.7484 14.5414 23.0542 15.5689 23.0542 16.9133V22.5291H23.0524ZM16 32.9695C7.17689 32.9695 0 25.5752 0 16.4847C0 7.39432 7.17689 0 16 0C24.8231 0 32 7.39432 32 16.4847C32 25.5752 24.8231 32.9695 16 32.9695ZM16 3.66328C9.13956 3.66328 3.55556 9.41645 3.55556 16.4847C3.55556 23.553 9.13956 29.3062 16 29.3062C22.8604 29.3062 28.4444 23.553 28.4444 16.4847C28.4444 9.41645 22.8604 3.66328 16 3.66328Z" fill="#002445"/>
</svg>
