<svg width="32" height="32" viewBox="0 0 32 32" fill="none" xmlns="http://www.w3.org/2000/svg">
<path fill-rule="evenodd" clip-rule="evenodd" d="M0 16C0 7.1632 7.1632 0 16 0C24.8368 0 32 7.1632 32 16C32 24.8368 24.8368 32 16 32C7.1632 32 0 24.8368 0 16ZM12.8 9.6C11.744 9.6 10.1952 9.904 8.864 10.8608C7.4544 11.8784 6.4 13.5584 6.4 16C6.4 18.4416 7.4528 20.1216 8.864 21.1376C10.0179 21.9473 11.3904 22.3875 12.8 22.4C13.2243 22.4 13.6313 22.2314 13.9314 21.9314C14.2314 21.6313 14.4 21.2243 14.4 20.8C14.4 20.3757 14.2314 19.9687 13.9314 19.6686C13.6313 19.3686 13.2243 19.2 12.8 19.2C12.256 19.2 11.4048 19.024 10.736 18.5408C10.1456 18.12 9.6 17.3984 9.6 16C9.6 14.6016 10.1472 13.8816 10.736 13.4592C11.4032 12.976 12.256 12.8 12.8 12.8C13.2243 12.8 13.6313 12.6314 13.9314 12.3314C14.2314 12.0313 14.4 11.6243 14.4 11.2C14.4 10.7757 14.2314 10.3687 13.9314 10.0686C13.6313 9.76857 13.2243 9.6 12.8 9.6ZM19.2 9.6C18.7757 9.6 18.3687 9.76857 18.0686 10.0686C17.7686 10.3687 17.6 10.7757 17.6 11.2C17.6 11.6243 17.7686 12.0313 18.0686 12.3314C18.3687 12.6314 18.7757 12.8 19.2 12.8C19.744 12.8 20.5952 12.976 21.264 13.4592C21.8528 13.8816 22.4 14.6016 22.4 16C22.4 17.3984 21.8528 18.1184 21.264 18.5408C20.5952 19.024 19.744 19.2 19.2 19.2C18.9899 19.2 18.7818 19.2414 18.5877 19.3218C18.3936 19.4022 18.2172 19.5201 18.0686 19.6686C17.9201 19.8172 17.8022 19.9936 17.7218 20.1877C17.6414 20.3818 17.6 20.5899 17.6 20.8C17.6 21.0101 17.6414 21.2182 17.7218 21.4123C17.8022 21.6064 17.9201 21.7828 18.0686 21.9314C18.2172 22.0799 18.3936 22.1978 18.5877 22.2782C18.7818 22.3586 18.9899 22.4 19.2 22.4C20.256 22.4 21.8048 22.096 23.136 21.1376C24.5456 20.1216 25.6 18.4416 25.6 16C25.6 13.5584 24.5472 11.8784 23.136 10.8608C21.9819 10.0517 20.6094 9.61204 19.2 9.6ZM12.8 14.4C12.3757 14.4 11.9687 14.5686 11.6686 14.8686C11.3686 15.1687 11.2 15.5757 11.2 16C11.2 16.4243 11.3686 16.8313 11.6686 17.1314C11.9687 17.4314 12.3757 17.6 12.8 17.6H19.2C19.6243 17.6 20.0313 17.4314 20.3314 17.1314C20.6314 16.8313 20.8 16.4243 20.8 16C20.8 15.5757 20.6314 15.1687 20.3314 14.8686C20.0313 14.5686 19.6243 14.4 19.2 14.4H12.8Z" fill="#002445"/>
</svg>
