<svg width="31" height="33" viewBox="0 0 31 33" fill="none" xmlns="http://www.w3.org/2000/svg">
<path d="M30.3801 18.8091C30.4802 18.0749 30.5313 17.3344 30.5331 16.5929C30.5331 12.2755 29.0784 8.54276 26.212 5.4974C23.3147 2.42368 19.7553 0.864684 15.6337 0.864684C15.1738 0.863996 14.7141 0.886463 14.2564 0.932004C12.9489 0.310295 11.5248 -0.00782485 10.0849 0.000146175C7.31818 0.000146175 4.83523 1.08082 2.90767 3.12701C1.00763 5.13776 0 7.70657 0 10.5535C0 12.0275 0.268242 13.4217 0.801286 14.7132C0.72142 15.337 0.681212 15.9655 0.680921 16.5947C0.680921 20.9138 2.14765 24.6501 5.03469 27.6972C7.9458 30.7656 11.5138 32.3211 15.6337 32.3211C16.0704 32.3211 16.5742 32.2856 17.1743 32.2148C18.3608 32.7161 19.5971 32.9695 20.8644 32.9695C23.595 32.9695 26.0659 31.8817 28.0123 29.8214C28.9556 28.8391 29.7009 27.6742 30.2052 26.3938C30.7095 25.1134 30.963 23.7429 30.951 22.3612C30.951 21.1618 30.7601 19.9713 30.3801 18.8091ZM21.4937 22.4161C21.0054 23.1726 20.2402 23.7997 19.1913 24.3028C18.1441 24.7333 16.9388 24.9495 15.5804 24.9495C13.94 24.9495 12.5609 24.643 11.4467 24.03C10.6867 23.6057 10.0395 22.9955 9.56213 22.2531C9.07379 21.4612 8.82618 20.726 8.82618 20.0422C8.82618 19.6117 8.98438 19.2326 9.29733 18.9101C9.45505 18.7487 9.64325 18.6223 9.85029 18.5388C10.0573 18.4553 10.2788 18.4165 10.501 18.4247C10.85 18.4247 11.1991 18.5523 11.5481 18.8021C11.8267 19.0891 12.0348 19.4505 12.174 19.881C12.2102 19.9164 12.4371 20.3292 12.855 21.1211C13.0304 21.3709 13.3433 21.6224 13.7955 21.874C14.2168 22.0901 14.7722 22.1982 15.472 22.1982C16.4143 22.1982 17.2001 21.9838 17.8278 21.5533C18.3849 21.1565 18.6634 20.6551 18.6634 20.0422C18.6634 19.539 18.5052 19.1599 18.1923 18.9101C17.8513 18.5689 17.4407 18.3104 16.9904 18.1537L16.4418 18.0208L15.656 17.8029C15.4072 17.7245 15.154 17.6618 14.8977 17.6151C13.713 17.3653 12.7019 17.0411 11.8611 16.6443C11.1286 16.3573 10.4666 15.8559 9.87336 15.1366C9.38674 14.4528 9.14085 13.6432 9.14085 12.7095C9.14085 11.7741 9.40222 10.9486 9.92666 10.2293C10.4494 9.51005 11.1991 8.96972 12.1758 8.61186C13.1542 8.21502 14.2718 8.02015 15.5271 8.02015C16.4694 8.02015 17.3601 8.14416 18.1957 8.39749C19.0005 8.68449 19.6453 9.02641 20.1336 9.42325C20.5858 9.85374 20.9538 10.2842 21.2324 10.7147C21.4765 11.2887 21.6003 11.7582 21.6003 12.1161C21.605 12.3365 21.5653 12.5556 21.484 12.7595C21.4026 12.9635 21.2812 13.1479 21.1275 13.3013C20.974 13.4718 20.7881 13.608 20.5813 13.7012C20.3745 13.7945 20.1513 13.8429 19.9255 13.8434C19.5682 13.8523 19.2182 13.7376 18.9317 13.5174C18.7563 13.3385 18.531 13.016 18.2508 12.5483C18.0267 12.0248 17.6869 11.5626 17.2586 11.1984C16.8408 10.876 16.1942 10.7147 15.3207 10.7147C14.4489 10.7147 13.7869 10.8954 13.333 11.2551C12.8447 11.581 12.6005 11.9566 12.6005 12.3871C12.6005 12.6741 12.6865 12.9115 12.8618 13.0887C13.0372 13.342 13.2608 13.5404 13.5428 13.6839C13.7182 13.7902 14.0139 13.9178 14.4335 14.0595L15.1385 14.2473C15.5047 14.3412 15.8108 14.4014 16.055 14.4369C16.5416 14.5449 17.3807 14.777 18.5671 15.1384C19.2653 15.3882 19.9273 15.7106 20.5549 16.1092C21.1498 16.538 21.5849 17.0251 21.8651 17.5619C22.1437 18.2086 22.2813 18.9278 22.2813 19.718C22.2818 20.6775 22.0079 21.616 21.4937 22.4161Z" fill="#002445"/>
</svg>
