<svg width="16" height="14" viewBox="0 0 16 14" fill="none" xmlns="http://www.w3.org/2000/svg">
<path d="M12.8893 9.12796C13.1591 8.4727 13.3056 7.77118 13.3056 7.00029C13.3056 6.44525 13.2208 5.91333 13.0743 5.41996C12.5733 5.53559 12.0491 5.59727 11.5017 5.59727C10.3808 5.59847 9.27606 5.33017 8.28057 4.81498C7.28508 4.29979 6.42804 3.55282 5.7817 2.63704C5.09028 4.31001 3.78595 5.6557 2.13537 6.399C2.10454 6.59172 2.10454 6.79986 2.10454 7.00029C2.10454 7.73627 2.2495 8.46504 2.53115 9.145C2.81279 9.82496 3.22561 10.4428 3.74603 10.9632C4.79705 12.0142 6.22255 12.6047 7.70893 12.6047C8.51837 12.6047 9.29697 12.4274 9.99848 12.1113C10.4379 12.9516 10.6383 13.3679 10.6229 13.3679C9.35864 13.7919 8.37961 14 7.70893 14C5.84337 14 4.06261 13.2677 2.75209 11.9494C1.95498 11.1548 1.36245 10.1787 1.02529 9.10483H0V5.59727H0.840273C1.09485 4.35807 1.68016 3.2109 2.53407 2.27749C3.38799 1.34408 4.47866 0.65924 5.69037 0.295649C6.90207 -0.0679413 8.18961 -0.0967248 9.41635 0.212353C10.6431 0.521431 11.7633 1.15684 12.6581 2.05116C13.6296 3.01883 14.2922 4.25291 14.5622 5.59727H15.4179V9.10483H15.3716L12.6272 11.6256L8.54149 11.1631V9.87572H12.2649L12.8893 9.12796ZM5.60439 6.82299C5.83566 6.82299 6.05922 6.91549 6.22111 7.08509C6.3838 7.24911 6.47509 7.47078 6.47509 7.7018C6.47509 7.93283 6.3838 8.1545 6.22111 8.31852C6.05922 8.48041 5.83566 8.57291 5.60439 8.57291C5.11873 8.57291 4.72557 8.18747 4.72557 7.7018C4.72557 7.21614 5.11873 6.82299 5.60439 6.82299ZM9.80576 6.82299C10.2914 6.82299 10.6769 7.21614 10.6769 7.7018C10.6769 8.18747 10.2914 8.57291 9.80576 8.57291C9.3201 8.57291 8.92694 8.18747 8.92694 7.7018C8.92694 7.46873 9.01953 7.2452 9.18434 7.08039C9.34915 6.91558 9.57268 6.82299 9.80576 6.82299Z" fill="white"/>
</svg>
